<svg id="Layer_1" data-name="Layer 1" xmlns="http://www.w3.org/2000/svg" viewBox="0 0 2000 2000"><defs><style>.cls-1{fill:#2563eb;}.cls-2{fill:#fff;}</style></defs><title>favicon</title><rect class="cls-1" width="2000" height="2000" rx="350"/><g id="Layer_3" data-name="Layer 3"><path class="cls-2" d="M730.49,1267.21c1.08,4-.18,6.37-3.8,7.13-2.3.49-9.25.22-21-.59s-19-1.37-21.85-2c-22.32,18.35-44.1,30.88-66.63,37.71-36.19,11-70.23,6.46-105.25-14-34.51-20-62.21-50.91-81.68-94.43-19.82-44.41-24.52-86.46-10.67-126.3,14.17-41.06,45.47-70.18,92.1-84.49a155,155,0,0,1,68.06-5.49c24.46,3.74,45.09,13,61.65,27.51,3.4,3,5.27,5.25,5.66,6.72,1.22,4.78-2.71,16.89-11.09,36.47s-14,29.85-17.62,30.77c-.85.21-4.88-2-12.2-6.59a90.13,90.13,0,0,0-26-11.07,71.87,71.87,0,0,0-38.32,1.32c-21.1,6.42-34.86,20-40.82,40.18-5.66,18.65-3.95,39,4.46,61,8.93,23.4,21.24,40,36.79,50.08,16.1,10.42,33.83,12.48,53.94,6.42,12.75-3.83,25.88-11.65,39.82-23.44-1.75-4.76-6.35-16.86-14-36.23q-9.12-22.32-13.39-36.41c-.81-2.8-.43-4.74,1.14-5.79a8.91,8.91,0,0,1,3.13-1.31,176.9,176.9,0,0,1,18.13-3.38c8.15-1.19,14.27-2.25,18.35-3.23,4.34-1,10.77-3,19.34-5.57s15.07-4.46,19.46-5.33c3.42-.72,5.7,1.39,6.81,6.31q2.44,10.8,6.19,32.75t6.17,32.74c4.27,19.35,11.9,47.89,22.39,85.92Z"/><path class="cls-2" d="M1000.63,1240.94c0,2.76-1.55,4.68-4.63,5.76-3.71,1.27-15.18,1.89-34.46,2.47-17.65.57-29,.61-34.23-.34q-6.37-1.23-8.63-9.84c-5.65-21.72-9.91-33.24-12.44-34.6-2.11-.88-19.35-.44-51.44,3-21.65,2.35-33,4.67-34.23,6.19-1.81,2.72-3.09,11.16-3.73,25.3-.58,12.9-2.4,20.12-5.54,21.66-4,1.83-17.86,4.36-41.39,8.51-18.56,3.3-28.27,3.06-29.14-1.31-.47-3.9,2.15-54.56,16-152.13C772.5,1010,786.15,952.1,787.64,941.68c1-5.95,2.75-9.15,5.24-9.46,4.19-.54,10.71-1,19.58-1.19s15.48-.55,19.83-1,10.34-1.31,18.45-2.59,14.2-2,18.26-2.37c3-.24,6,2.07,8.83,6.92,8.7,15.48,36.42,68.63,73,161.54C987,1187.16,1000.24,1236.9,1000.63,1240.94ZM846.5,1039.64c-2.28,7-5.76,22.06-10.06,45.17-4.67,24.56-6.49,38.89-6,43,.34,2.73,4.58,3.76,12.71,3.17,4.21-.15,11.1-.73,20.68-1.66,8.93-.84,13.72-2.47,14.45-5a9.61,9.61,0,0,0,.09-3.21c-.47-5-4.79-18.65-13.39-40.78C856.49,1059,850.15,1045.43,846.5,1039.64Z"/><path class="cls-2" d="M1295.14,1271.42c-1.06,4.63-3.32,6.55-6.82,5.79q-32-7-64.35-12.35c-3.53-.59-4.87-3.51-4-8.81,2.54-15.25,6.83-38,13-68.46s10.79-53.09,13.5-68.33c.79-4.36.58-6.8-.6-7.3-1.58.68-15.24,22.32-38.34,65.9q-20.16,38.49-38.54,77.19c-1.68,3.34-3.45,5.2-5.37,5.58a58.63,58.63,0,0,1-7.37-.64c-6.36-.73-10-2.64-10.88-5.81-4.82-17.45-11.1-42.7-19.63-75.73-9.15-34.9-16.94-60.08-22.33-75.63a6.85,6.85,0,0,0-1.68-2.65,11.86,11.86,0,0,0-1.9,6.55q-1.59,22.46-3.69,67.42t-3.63,67.52c-.36,5.36-2.28,7.9-5.73,7.69q-30.91-1.92-61.92-2.42c-2.47,0-4-.55-4.46-1.49a11.46,11.46,0,0,1-.78-5.18q.31-25,3-75.17c1.82-33.43,3-58.48,3.29-75.16.28-17.76.16-51.06-.57-99.91q0-19.07-1.2-56.75l-.18-3.9c-.12-3.06,3.19-4.57,9.88-4.46,8.58.16,21.45.18,38.61.34s30,.69,38.6,1.22c1.72.12,3.9,3.48,6.49,10.11q28.15,75.69,49.86,152.17c3.13,10.42,6.09,15.7,8.93,16q2.23.24,11.91-15.93c18.35-30.12,46.27-75.42,88.44-134.17,3.7-5.43,7.12-7.88,10.18-7.36,4.47.76,11.12,2.14,20,4.24s15.53,3.63,20.12,4.54c3.81.74,9.72,1.49,17.74,2.41s13.91,1.77,17.71,2.6c4.55,1,6.38,3.31,5.48,6.86-4.47,17.55-11.75,43.63-21.54,78.27s-16.62,60.81-20.83,78.41q-5.8,24.38-15.41,73.56T1295.14,1271.42Z"/><path class="cls-2" d="M1000.07,1003.45h4.86v-1.09q-37-6.72-75.4-12.64,3.11,6.84,6.46,14.37,26.79-.66,53.68-.64Z"/><path class="cls-2" d="M1159.08,991.78c1.34,4,2.65,8,4,11.9q12.81,3.27,25.42,6.64,11.79.91,23.54,1.95c1.17-1.74,2.33-3.51,3.5-5.31Q1187.87,999.07,1159.08,991.78Z"/><path class="cls-2" d="M906.34,941.61q2.77,5.42,6.15,12.25,47,7,92,15.33c-.05-3.55-.14-7.29-.25-11.24Q956.45,949.11,906.34,941.61Z"/><path class="cls-2" d="M1142,943c1.48,3.91,2.82,7.84,4.24,11.77q45.48,11.38,88.19,24.17,3-4.32,6-8.75Q1193,955.67,1142,943Z"/><path class="cls-2" d="M714,1020l-62.6-488.41,35.72-40.82L724,819.72l21.35,196.76,6.84-.71c5-27.62,9.15-48.1,11.8-61.24,1.49-7.36,2.79-13.71,3.07-15.72v-.54c3.51-21.07,16-25.71,23.07-26.61.85-.1,1.78-.2,2.75-.29L744.31,358.64l59.1-62.94,42.35,611.56,1.72-.28c8.32-1.3,15-2.16,19.83-2.55.69,0,1.38-.09,2.06-.09a26.52,26.52,0,0,1,4.08.33l-.13-2.29,2.08.29q66.18,9.36,128.51,21.06a23.59,23.59,0,0,1,5-10q-65.24-12.47-134.81-22.33l-1.4-.19-2.1-35.9,2.09.3c143.32,20.72,273.48,49.65,387.92,86.14a43.38,43.38,0,0,1,9.18-9.61c-117-38.27-250.85-68.46-398.58-90l-1.39-.21-2.18-37.13,2.1.31c170.16,25.14,322.08,61.81,451.54,109l1.28.48-2.08,18.75c4.08.94,7.89,1.79,10.69,2.34,2.51.49,6.74,1.09,12.56,1.76l58-472,.16-1.25-1.14-.52c-.79-.37-66.11-30.37-165.62-65.85l.78-11.6c-80.49-113-261.75-78.31-261.75-78.31l.23,12.67c-54.12-12.64-111.13-23.67-168.7-31.26l-.89-.12L696,405.11l-.54.57,7.73,79.73H687.34l-39.6,45.12,62.79,489.93ZM1323.67,904.3l-2.05-.76c-129.93-47.63-282.45-84.69-453.3-110.13l-1.39-.21-2.24-38.39,2.09.33c173.28,26.2,327.92,64.27,459.61,113.23l1.27.48Zm5.39-47.78-2.07-.77c-132.26-49.5-287.61-88-461.74-114.48l-1.38-.22-2.32-39.74,2.11.33c176.61,27.26,334.18,66.88,468.28,117.77l1.25.47Zm5.59-49.54-2.08-.79c-134.69-51.47-293-91.56-470.49-119.15l-1.38-.21-2.41-41.18,2.11.33c180.08,28.42,340.68,69.68,477.29,122.62l1.23.47Zm5.81-51.44-2.1-.82c-137.2-53.57-298.56-95.24-479.6-124.07l-1.37-.21-2.5-42.71,2.13.34c183.71,29.67,347.44,72.66,486.67,127.75l1.22.49Zm5.82-51.64-2.1-.83C1204.43,647.41,1040,604,855.44,573.93l-1.37-.22-2.58-44.28,2.12.34c187.36,31,354.21,75.73,496,133l1.22.49Zm6.26-55.45-2.11-.87c-142.46-58-310.2-103.31-498.57-134.68l-1.36-.23-2.69-46L850,467c191.26,32.37,361.55,79.07,506.21,138.82l1.2.49Zm6.64-60.28-2.13-.88c-145.33-60.52-316.58-107.88-509-140.71l-1.35-.24-2.8-47.88,2.14.37c195.43,33.91,369.33,82.74,516.87,145.13l1.19.5ZM842,330.92c199.77,35.54,377.41,86.62,528,151.81l1.18.5-5.12,45.44-2.15-.91c-148.3-63.22-323.19-112.7-519.81-147.1l-1.34-.24-3-49.87Z"/><path class="cls-2" d="M1247.66,382.92l-.43,6.58c171.26,9.44,302.4,29.65,302.4,60.6V995.75q9.13,3,20.11,6.47c4.29,1.4,8.32,2.76,12.12,4V422.63c0-34.71-157.27-56.55-355.63-65.66a182.51,182.51,0,0,1,19,22.58Z"/><path class="cls-2" d="M461.11,990.75V450.1c0-26.35,95.12-44.93,229.19-55.72l31.85-34.05C554.22,370.88,429,391.65,429,422.63v595.53A149.73,149.73,0,0,1,461.11,990.75Z"/><path class="cls-2" d="M1502.8,1522.05a176.24,176.24,0,0,1-130.27,57.45H1099.89c-34.05,0-92.9,42.06-92.9,93.39,0-51.33-58.83-93.39-92.88-93.39H638.19a176.26,176.26,0,0,1-133.32-60.87A186.89,186.89,0,0,1,464,1534.16a187.3,187.3,0,0,0,152.49,78.26H908.71c36.06,0,98.39,44.3,98.39,98.39,0-54.09,62.33-98.39,98.37-98.39H1394.3a187.33,187.33,0,0,0,150.87-76.19,206.59,206.59,0,0,1-36.43-11.49C1506.76,1523.88,1504.76,1522.94,1502.8,1522.05Z"/><path class="cls-2" d="M1534,1279c-2.58,6.08-8.32,16.81-17.07,32.27-9.44,16.85-15.54,26.69-18.52,29.45-2.45,2.15-4.86,2.76-7.26,1.8a37.53,37.53,0,0,1-4.87-2.64c-7.78-4.6-31.79-15-73.07-28.46-9-3-22.41-7.22-40.35-12.55s-31.52-8.93-40.6-11.2c-4-1-5.39-3.64-4.27-7.95,4.23-16.62,11.34-41.4,21.68-74.28s18-57.49,22.52-74.1q6.9-25.3,23.59-94.85,4.34-17.87,12.55-53.58c.22-1,.43-2.1.65-3.15.66-3.47,3-4.69,7.09-3.66,11.11,2.82,27.72,7.44,49.62,14.4s38.16,12.43,49.11,15.93,27,8.47,48.53,15.52,37.52,12.9,48,17q11.16,4.45,9.14,13.39-1.15,5.26-10,30.66t-11.24,30.66q-2,4.46-6,2.77c-.82-.33-2.2-1-4.18-1.92a685.85,685.85,0,0,0-97-40.34c-7.44-2.38-12.62-2-15.55,1.1q-2,2.29-6.82,16.38-5.06,14.88-2.6,20.83c1.35,3.48,5.29,6.25,11.78,8.35,1.36.45,4,1.19,8,2.26s7.28,2.06,9.84,3q25.45,8.58,51.78,16.83c1.49.42,5.31,1.49,11.38,3.14a90.78,90.78,0,0,1,11.09,3.35c3.17,1.27,4,3.52,2.64,6.76,1.31-3-4.65,7.32-17.45,31q-8.78,16.38-15.85,33.33c-1.19,2.84-3.6,3.52-7.21,2.11q-8-4.35-16.09-8.63c-6.85-3.53-23.07-10.17-49-18.87q-10.17-3.42-20.41-6.67c-5.26-1.68-8.93-1.18-10.71,1.49q-.55,1-4.64,13.48-5.46,16.61-5.14,22c.33,6.22,7.22,11.9,20.57,17.48-.27,0,8.78,2.83,26.91,9.25,6.49,2.29,16.37,5.07,29.6,8.52a257.26,257.26,0,0,1,29.12,9.14C1536,1270.78,1536.24,1273.86,1534,1279Z"/><path class="cls-2" d="M1167.15,1018.72q7,21.91,13.57,44c7-11.31,15.54-25,25.81-40.85Q1186.93,1020.13,1167.15,1018.72Z"/><path class="cls-2" d="M1365.77,1051.59c-4.7,16.67-8.52,30.64-11.61,42.25l6.75,1.06c3.39-13.6,7.59-30.73,12.75-52.09l-5.16-.85C1367.62,1045.1,1366.71,1048.29,1365.77,1051.59Z"/><path class="cls-2" d="M961.68,1066.64q12.55-.23,25.13-.33H1006c0-14.48-.13-32.58-.4-53.46H986.46q-23.54.18-47.05.82Q949.67,1037.1,961.68,1066.64Z"/><path class="cls-2" d="M1617.47,1121.75c-4.24,9.43-12.56,15.06-22.32,15.06a25.54,25.54,0,0,1-9.53-1.89l-.43-.18a23.71,23.71,0,0,1,7.08,9.26l.26.67c6,1.61,11.81,3.21,17.71,4.86l8.93-31.9C1618.38,1119.62,1617.86,1120.86,1617.47,1121.75Z"/><path class="cls-2" d="M394.06,1094.16l-9.28,2.53,7,25.21A164.15,164.15,0,0,1,394.06,1094.16Z"/><path class="cls-2" d="M664.36,1037.62a273.67,273.67,0,0,1-9.89,25.8c-6.51,15.26-11.52,25.68-16.91,32.48q17.07-2.79,34.23-5.33c4.82-1.37,8.93-2.43,12.29-3.14a25,25,0,0,1,10.2,0q23.69-3.26,47.44-6,4.88-30.63,9.2-54.83Q707.57,1031.28,664.36,1037.62Z"/><path class="cls-2" d="M778.71,1335.73q8.61-8.16,17-15.28A1920.47,1920.47,0,0,0,582.15,1355q-31.24,6.43-63.21,14.32l-15.67,3.9-1.66,16.06c-1.1,10.59-2,21.37-2.82,31.79-.7,8.58-1.35,16.69-2.08,23.94-.64,6.48-5.69,12.18-12.77,17-14.06,9.59-36.25,15.72-48.46,17.52l-1.58.24-8.12,2.33-232.17,67.08,91.82-144.72-69.29-110.59,184.55-60.22,2.84-43.62c-12-33.84-15.39-66.23-10-96.74q-7.2,1.9-14.44,3.86l-15.85,4.3-6.43,98.12L146,1268.34,231,1404.25,89.64,1627.12l354.09-102.29.56-.09c9.39-1.48,38.16-7.26,62.21-22.45,18.13-11.45,33.56-28.28,36-52.7.76-7.7,1.49-16,2.14-24.83.39-4.78.79-9.61,1.21-14.46a1808.89,1808.89,0,0,1,238.24-42.88l-15.42-22.22Z"/><path class="cls-2" d="M1012.08,1324l.61.59,1.14,2a97.15,97.15,0,0,1,10.89,28.56h3.33l44.46-44.32q-34.4-1.24-70.43-1.3h-.7a81.08,81.08,0,0,1,7.7,9.83C1010.7,1321.89,1011.61,1323.25,1012.08,1324Z"/><path class="cls-2" d="M1769,1404.25l85.06-135.91-210.88-68.8-6.4-98.12-10-2.71c-5.67,16-7.65,20.84-8.72,23.31-4.35,9.68-12.9,15.46-22.9,15.46a15.84,15.84,0,0,1-2.19-.1l.53,8.11a25.24,25.24,0,0,1,.85,12.93l4.91,75.2,184.55,60.22-69.22,110.59,91.83,144.72-222.32-64.22-16.48-4.76-1.49-.43-1.48-.23a135.34,135.34,0,0,1-39.68-12.85c-11-5.78-19.6-13.16-20.45-21.69-.73-7.25-1.38-15.37-2.07-24-.83-10.42-1.7-21.18-2.8-31.77l-1.66-16.06-15.68-3.9c-43.16-10.75-86.55-19.87-129.48-27.49-42.43-7.93-89.56-15.18-140.76-20.84l-43.9,41.32A1790.56,1790.56,0,0,1,1455.37,1411c.38,4.59.76,9.16,1.11,13.67.72,8.82,1.39,17.16,2.15,24.87,1.71,16.66,10.64,39.15,42.52,56.65a140,140,0,0,0,12.87,6.24,199.57,199.57,0,0,0,42.15,12.32l8.75,2.53,345.44,99.82Z"/><path class="cls-2" d="M1002.08,1355c7.61,0,15.14,0,22.64.15a97.29,97.29,0,0,0-10.86-28.56l-1.14-2-.61-.59c-.47-.73-1.38-2.09-3-4.6a80.31,80.31,0,0,0-7.7-9.83h-2.76a1975.1,1975.1,0,0,0-202.86,10.9q-8.4,7.11-17.05,15.28l-10,9.47,15.42,22.22A1933.23,1933.23,0,0,1,998.76,1355Z"/><path class="cls-2" d="M1072.51,1310.85l-44.46,44.32c49.19.68,96,3.26,140,7.14L1212,1321C1168.31,1316.22,1121.7,1312.65,1072.51,1310.85Z"/></g></svg>